<svg width="185" height="86" viewBox="0 0 185 86" fill="none" xmlns="http://www.w3.org/2000/svg">
<path d="M144 80.0476H172" stroke="black" stroke-width="5"/>
<path d="M5 80.0476H81" stroke="black" stroke-width="5"/>
<path d="M24.4995 50.481H15.7471V70H4.76074V16.6797H24.5728C30.8716 16.6797 35.73 18.0835 39.1479 20.8911C42.5659 23.6987 44.2749 27.666 44.2749 32.793C44.2749 36.4307 43.4814 39.4702 41.8945 41.9116C40.332 44.3286 37.9517 46.2573 34.7534 47.6978L46.2891 69.4873V70H34.4971L24.4995 50.481ZM15.7471 41.582H24.6094C27.3682 41.582 29.5044 40.8862 31.0181 39.4946C32.5317 38.0786 33.2886 36.1377 33.2886 33.6719C33.2886 31.1572 32.5684 29.1797 31.1279 27.7393C29.7119 26.2988 27.5269 25.5786 24.5728 25.5786H15.7471V41.582ZM50.3174 49.8218C50.3174 45.8911 51.0742 42.3877 52.5879 39.3115C54.1016 36.2354 56.2744 33.855 59.1064 32.1704C61.9629 30.4858 65.271 29.6436 69.0308 29.6436C74.3774 29.6436 78.7354 31.2793 82.1045 34.5508C85.498 37.8223 87.3901 42.2656 87.7808 47.8809L87.854 50.5908C87.854 56.6699 86.1572 61.5527 82.7637 65.2393C79.3701 68.9014 74.8169 70.7324 69.104 70.7324C63.3911 70.7324 58.8257 68.9014 55.4077 65.2393C52.0142 61.5771 50.3174 56.5967 50.3174 50.2979V49.8218ZM60.9009 50.5908C60.9009 54.3506 61.6089 57.2314 63.0249 59.2334C64.4409 61.2109 66.4673 62.1997 69.104 62.1997C71.6675 62.1997 73.6694 61.2231 75.1099 59.27C76.5503 57.2925 77.2705 54.1431 77.2705 49.8218C77.2705 46.1353 76.5503 43.2788 75.1099 41.2524C73.6694 39.2261 71.6431 38.2129 69.0308 38.2129C66.4429 38.2129 64.4409 39.2261 63.0249 41.2524C61.6089 43.2544 60.9009 46.3672 60.9009 50.5908ZM92.8345 49.895C92.8345 43.8159 94.2749 38.9209 97.1558 35.21C100.061 31.499 103.967 29.6436 108.875 29.6436C113.22 29.6436 116.602 31.1328 119.019 34.1113L119.458 30.376H129.053V68.6816C129.053 72.1484 128.259 75.1636 126.672 77.7271C125.11 80.2905 122.9 82.2437 120.044 83.5864C117.188 84.9292 113.843 85.6006 110.01 85.6006C107.104 85.6006 104.272 85.0146 101.514 83.8428C98.7549 82.6953 96.6675 81.2061 95.2515 79.375L99.939 72.9297C102.576 75.8838 105.774 77.3608 109.534 77.3608C112.341 77.3608 114.526 76.604 116.089 75.0903C117.651 73.6011 118.433 71.4771 118.433 68.7183V66.5942C115.991 69.353 112.781 70.7324 108.801 70.7324C104.041 70.7324 100.183 68.877 97.229 65.166C94.2993 61.4307 92.8345 56.4868 92.8345 50.3345V49.895ZM103.418 50.6641C103.418 54.2529 104.138 57.0728 105.579 59.1235C107.019 61.1499 108.997 62.1631 111.511 62.1631C114.734 62.1631 117.041 60.9546 118.433 58.5376V41.875C117.017 39.458 114.734 38.2495 111.584 38.2495C109.045 38.2495 107.043 39.2871 105.579 41.3623C104.138 43.4375 103.418 46.5381 103.418 50.6641ZM155.457 70.7324C149.646 70.7324 144.91 68.9502 141.248 65.3857C137.61 61.8213 135.791 57.0728 135.791 51.1401V50.1147C135.791 46.1353 136.56 42.583 138.098 39.458C139.636 36.3086 141.809 33.8916 144.617 32.207C147.449 30.498 150.671 29.6436 154.285 29.6436C159.705 29.6436 163.965 31.3525 167.065 34.7705C170.19 38.1885 171.753 43.0347 171.753 49.3091V53.6304H146.521C146.863 56.2183 147.888 58.2935 149.597 59.856C151.331 61.4185 153.516 62.1997 156.152 62.1997C160.229 62.1997 163.416 60.7227 165.71 57.7686L170.911 63.5913C169.324 65.8374 167.175 67.5952 164.465 68.8647C161.755 70.1099 158.752 70.7324 155.457 70.7324ZM154.248 38.2129C152.148 38.2129 150.439 38.9209 149.121 40.3369C147.827 41.7529 146.997 43.7793 146.631 46.416H161.353V45.5737C161.304 43.23 160.669 41.4233 159.448 40.1538C158.228 38.8599 156.494 38.2129 154.248 38.2129Z" fill="black"/>
</svg>
